<svg id="Layer_1" width="75" height="75" data-name="Layer 1" xmlns="http://www.w3.org/2000/svg" xmlns:xlink="http://www.w3.org/1999/xlink" viewBox="0 0 222.52 159.62"><defs><style>.cls-1{opacity:0.91;fill:url(#linear-gradient);}.cls-2{fill:url(#linear-gradient-2);}</style><linearGradient id="linear-gradient" x1="946.5" y1="138.02" x2="965.15" y2="691.26" gradientUnits="userSpaceOnUse"><stop offset="0.52" stop-color="#fff"/><stop offset="0.92"/></linearGradient><linearGradient id="linear-gradient-2" x1="969.79" y1="235.5" x2="977.56" y2="662.85" gradientUnits="userSpaceOnUse"><stop offset="0" stop-color="#fff"/><stop offset="0.6" stop-color="#ffce00"/><stop offset="1"/></linearGradient></defs><path d="M1046.24,544.39c0,.36,0,.74,0,1.1a21.35,21.35,0,0,1-11.3,18.78l-98.2,52.92a21.57,21.57,0,0,1-31.8-19.62l.71-24.24c8.71-.39,18.22-1.14,28.39-2.27,7.83-.88,15.66-2,23.42-3.22l-12.93,7.57,18.91-4-5.13,3.48,33.56-9.49a1.86,1.86,0,0,0,.61-.22,7.68,7.68,0,0,0,5.46-5.43C1016.72,555.14,1033.45,549.81,1046.24,544.39Z" transform="translate(-848.74 -460.19)"/><path class="cls-1" d="M1014,508.81l21.72,13.49a21.46,21.46,0,0,1,10.19,17.55c10.33-4.39,18.06-8.92,22.15-13.2C1080.19,514,1056.73,507,1014,508.81ZM851.9,550.51c-12,12.58,11.13,19.58,53.34,17.84l1.34-42.14C880.11,533.65,859.59,542.42,851.9,550.51Zm0,0c-12,12.58,11.13,19.58,53.34,17.84l1.34-42.14C880.11,533.65,859.59,542.42,851.9,550.51ZM1014,508.81l21.72,13.49a21.46,21.46,0,0,1,10.19,17.55c10.33-4.39,18.06-8.92,22.15-13.2C1080.19,514,1056.73,507,1014,508.81Z" transform="translate(-848.74 -460.19)"/><path class="cls-2" d="M1045.93,539.85a248.3,248.3,0,0,1-24.44,8.7c-3.84,1.16-7.83,2.32-12,3.45-3.77,1-7.68,2-11.71,3,0-.07,0-.11-.07-.18a7.78,7.78,0,0,0-7.29-5,8,8,0,0,0-4,1.09L969.24,561c-11.64,2.11-23.64,3.88-35.57,5.19-10.19,1.16-19.69,1.85-28.43,2.21l1.34-42.14,1.49-45.1A21.52,21.52,0,0,1,941,463.48l28.9,17.95,25.35,15.74,17.62,10.91,1.16.73,21.72,13.49A21.46,21.46,0,0,1,1045.93,539.85Z" transform="translate(-848.74 -460.19)"/></svg>